<?xml version="1.0" encoding="utf-8"?>
<!-- Generator: Adobe Illustrator 24.2.1, SVG Export Plug-In . SVG Version: 6.00 Build 0)  -->
<svg version="1.1" id="Capa_1" xmlns="http://www.w3.org/2000/svg" xmlns:xlink="http://www.w3.org/1999/xlink" x="0px" y="0px"
	 viewBox="0 0 40 40" style="enable-background:new 0 0 40 40;" xml:space="preserve">
<style type="text/css">
	.st0{fill-rule:evenodd;clip-rule:evenodd;fill:#0072CE;}
	.st1{fill-rule:evenodd;clip-rule:evenodd;fill:#FFFFFF;}
</style>
<circle id="Oval" class="st0" cx="20" cy="20" r="20"/>
<path id="path-1_1_" class="st1" d="M31.644,8.342c-0.18-0.178-0.696-0.556-1.629-0.181L9.163,16.497
	c-0.603,0.242-1.016,0.696-1.131,1.251c-0.116,0.554,0.08,1.136,0.534,1.597l2.634,2.681c0.288,0.294,0.764,0.299,1.061,0.009
	c0.295-0.289,0.3-0.765,0.009-1.06l-2.634-2.681c-0.113-0.113-0.142-0.206-0.135-0.239c0.007-0.035,0.072-0.107,0.219-0.167
	L30.34,9.644l-8.246,20.629c-0.059,0.147-0.131,0.212-0.162,0.219c-0.035,0.009-0.122-0.024-0.234-0.135l-4.997-4.959
	c-0.139-0.139-0.217-0.325-0.217-0.525c0-0.199,0.076-0.387,0.216-0.528l10.564-10.564c0.292-0.292,0.292-0.768,0-1.061
	c-0.292-0.292-0.768-0.292-1.06,0L15.64,23.285c-0.424,0.424-0.657,0.99-0.655,1.591c0.001,0.603,0.237,1.167,0.661,1.587
	l4.997,4.958c0.373,0.372,0.828,0.572,1.282,0.572c0.104,0,0.208-0.01,0.312-0.033c0.553-0.114,1.01-0.525,1.251-1.129l8.339-20.859
	C32.199,9.038,31.822,8.52,31.644,8.342"/>
</svg>
